<svg xmlns="http://www.w3.org/2000/svg" viewBox="0 0 200 60" fill="none">
  <!-- Logo Icon: Stylized document with modern twist -->
  <g id="logo-icon">
    <!-- Main document shape with subtle fold -->
    <path d="M12 8C12 5.79086 13.7909 4 16 4H28L36 12V44C36 46.2091 34.2091 48 32 48H16C13.7909 48 12 46.2091 12 44V8Z" fill="url(#gradient1)" opacity="0.95"/>
    <!-- Fold detail -->
    <path d="M28 4V12H36L28 4Z" fill="url(#gradient2)" opacity="0.8"/>
    <!-- Subtle lines suggesting document content -->
    <line x1="18" y1="20" x2="30" y2="20" stroke="white" stroke-width="1.5" stroke-linecap="round" opacity="0.6"/>
    <line x1="18" y1="26" x2="28" y2="26" stroke="white" stroke-width="1.5" stroke-linecap="round" opacity="0.6"/>
    <line x1="18" y1="32" x2="30" y2="32" stroke="white" stroke-width="1.5" stroke-linecap="round" opacity="0.4"/>
    <!-- Modern accent dot -->
    <circle cx="42" cy="18" r="3" fill="url(#gradient3)"/>
  </g>
  
  <!-- Doxly Text -->
  <text x="56" y="38" font-family="system-ui, -apple-system, 'Segoe UI', sans-serif" font-size="32" font-weight="600" fill="url(#textGradient)" letter-spacing="-0.5px">Doxly</text>
  
  <!-- Gradients -->
  <defs>
    <linearGradient id="gradient1" x1="12" y1="4" x2="36" y2="48" gradientUnits="userSpaceOnUse">
      <stop offset="0%" stop-color="#6366F1"/>
      <stop offset="100%" stop-color="#8B5CF6"/>
    </linearGradient>
    <linearGradient id="gradient2" x1="28" y1="4" x2="36" y2="12" gradientUnits="userSpaceOnUse">
      <stop offset="0%" stop-color="#818CF8"/>
      <stop offset="100%" stop-color="#A78BFA"/>
    </linearGradient>
    <linearGradient id="gradient3" x1="39" y1="15" x2="45" y2="21" gradientUnits="userSpaceOnUse">
      <stop offset="0%" stop-color="#EC4899"/>
      <stop offset="100%" stop-color="#F472B6"/>
    </linearGradient>
    <linearGradient id="textGradient" x1="56" y1="20" x2="150" y2="38" gradientUnits="userSpaceOnUse">
      <stop offset="0%" stop-color="#1F2937"/>
      <stop offset="100%" stop-color="#374151"/>
    </linearGradient>
  </defs>
</svg>
